<?xml version="1.0" standalone="no"?>
<!DOCTYPE svg PUBLIC "-//W3C//DTD SVG 20010904//EN"
 "http://www.w3.org/TR/2001/REC-SVG-20010904/DTD/svg10.dtd">
<svg version="1.0" xmlns="http://www.w3.org/2000/svg"
 width="204.000000pt" height="164.000000pt" viewBox="0 0 204.000000 164.000000"
 preserveAspectRatio="xMidYMid meet">
<metadata>
Created by potrace 1.16, written by Peter Selinger 2001-2019
</metadata>
<g transform="translate(0.000000,164.000000) scale(0.100000,-0.100000)"
fill="#000000" stroke="none">
<path d="M1105 1475 c-78 -17 -174 -59 -182 -81 -7 -19 66 -163 91 -179 11 -6
26 -3 53 12 109 61 253 69 351 19 62 -32 118 -80 157 -136 l28 -40 118 0 c65
0 120 4 124 10 15 25 -96 192 -177 265 -133 120 -365 174 -563 130z"/>
<path d="M645 1453 c-71 -129 -564 -1147 -559 -1154 3 -5 167 -9 365 -9 298 0
361 2 365 14 3 8 -15 55 -40 105 l-46 91 -156 0 c-95 0 -154 4 -152 10 9 27
244 490 248 490 3 0 78 -145 167 -323 89 -177 171 -337 183 -355 l20 -32 109
0 c61 0 112 4 115 8 7 12 -576 1176 -591 1180 -7 2 -20 -9 -28 -25z"/>
<path d="M1175 871 c-3 -6 17 -55 45 -110 l50 -101 166 -2 167 -3 -45 -50
c-25 -28 -75 -68 -112 -89 -36 -21 -66 -45 -66 -53 0 -7 18 -50 41 -94 39 -79
41 -81 71 -75 97 19 258 161 321 282 40 77 70 199 65 261 l-3 38 -347 3 c-216
1 -349 -1 -353 -7z"/>
</g>
</svg>
